<svg width="20" height="21" viewBox="0 0 20 21" fill="none" xmlns="http://www.w3.org/2000/svg">
<path d="M16.9308 3.96302C15.6561 3.37812 14.2892 2.94719 12.8599 2.70038C12.8339 2.69561 12.8079 2.70752 12.7945 2.73133C12.6187 3.044 12.4239 3.45192 12.2876 3.77254C10.7503 3.5424 9.22099 3.5424 7.71527 3.77254C7.57887 3.44479 7.37707 3.044 7.20048 2.73133C7.18707 2.70831 7.16107 2.69641 7.13504 2.70038C5.70659 2.9464 4.33963 3.37733 3.06411 3.96302C3.05307 3.96778 3.04361 3.97572 3.03732 3.98603C0.444493 7.85967 -0.265792 11.6381 0.0826501 15.3697C0.0842267 15.3879 0.0944749 15.4054 0.108665 15.4165C1.81934 16.6728 3.47642 17.4354 5.10273 17.941C5.12876 17.9489 5.15634 17.9394 5.1729 17.9179C5.55761 17.3926 5.90054 16.8387 6.19456 16.2561C6.21192 16.222 6.19535 16.1815 6.15989 16.168C5.61594 15.9617 5.098 15.7101 4.59978 15.4244C4.56037 15.4014 4.55721 15.345 4.59347 15.3181C4.69831 15.2395 4.80318 15.1578 4.9033 15.0752C4.92141 15.0601 4.94665 15.057 4.96794 15.0665C8.24107 16.5609 11.7846 16.5609 15.0191 15.0665C15.0404 15.0562 15.0657 15.0594 15.0846 15.0744C15.1847 15.157 15.2896 15.2395 15.3952 15.3181C15.4314 15.345 15.4291 15.4014 15.3897 15.4244C14.8914 15.7157 14.3735 15.9617 13.8288 16.1672C13.7933 16.1807 13.7775 16.222 13.7949 16.2561C14.0952 16.8378 14.4381 17.3918 14.8157 17.9172C14.8315 17.9394 14.8599 17.9489 14.8859 17.941C16.5201 17.4354 18.1772 16.6728 19.8879 15.4165C19.9028 15.4054 19.9123 15.3887 19.9139 15.3705C20.3309 11.0563 19.2154 7.30891 16.9568 3.98682C16.9513 3.97572 16.9419 3.96778 16.9308 3.96302ZM6.68335 13.0975C5.69792 13.0975 4.88594 12.1928 4.88594 11.0818C4.88594 9.97068 5.68217 9.06598 6.68335 9.06598C7.69239 9.06598 8.49651 9.97862 8.48073 11.0818C8.48073 12.1928 7.68451 13.0975 6.68335 13.0975ZM13.329 13.0975C12.3435 13.0975 11.5316 12.1928 11.5316 11.0818C11.5316 9.97068 12.3278 9.06598 13.329 9.06598C14.338 9.06598 15.1421 9.97862 15.1264 11.0818C15.1264 12.1928 14.338 13.0975 13.329 13.0975Z" fill="black"/>
</svg>
