<svg width="51" height="60" viewBox="0 0 51 60" fill="none" xmlns="http://www.w3.org/2000/svg">
<path d="M0.5 53.9479C0.51613 54.8843 0.788546 55.7982 1.28759 56.5903C1.78664 57.3824 2.49327 58.0227 3.33065 58.441C4.16686 58.9137 5.11099 59.1621 6.07144 59.1621C7.03188 59.1621 7.97606 58.9137 8.81222 58.441L47.6774 34.4031C48.523 33.9957 49.2365 33.3579 49.7362 32.5631C50.2354 31.7683 50.5 30.8487 50.5 29.91C50.5 28.9714 50.2354 28.0518 49.7362 27.2569C49.2365 26.4621 48.523 25.8243 47.6774 25.4169L8.81222 1.5586C7.97606 1.08612 7.03188 0.83783 6.07144 0.83783C5.11099 0.83783 4.16686 1.08612 3.33065 1.5586C2.49327 1.97731 1.78664 2.61752 1.28759 3.40967C0.788546 4.2018 0.51613 5.11561 0.5 6.0517V53.9479Z" stroke="black" stroke-linecap="round" stroke-linejoin="round"/>
</svg>
