<svg width="20" height="21" viewBox="0 0 20 21" fill="none" xmlns="http://www.w3.org/2000/svg">
<path d="M19.8008 6.5C19.8008 6.5 19.6055 5.12109 19.0039 4.51563C18.2422 3.71875 17.3906 3.71484 17 3.66797C14.2031 3.46484 10.0039 3.46484 10.0039 3.46484H9.99609C9.99609 3.46484 5.79687 3.46484 3 3.66797C2.60938 3.71484 1.75781 3.71875 0.996094 4.51563C0.394531 5.12109 0.203125 6.5 0.203125 6.5C0.203125 6.5 0 8.12109 0 9.73828V11.2539C0 12.8711 0.199219 14.4922 0.199219 14.4922C0.199219 14.4922 0.394531 15.8711 0.992187 16.4766C1.75391 17.2734 2.75391 17.2461 3.19922 17.332C4.80078 17.4844 10 17.5313 10 17.5313C10 17.5313 14.2031 17.5234 17 17.3242C17.3906 17.2773 18.2422 17.2734 19.0039 16.4766C19.6055 15.8711 19.8008 14.4922 19.8008 14.4922C19.8008 14.4922 20 12.875 20 11.2539V9.73828C20 8.12109 19.8008 6.5 19.8008 6.5ZM7.93359 13.0938V7.47266L13.3359 10.293L7.93359 13.0938Z" fill="black"/>
</svg>
